<svg xmlns="http://www.w3.org/2000/svg" id="prefix__Layer_2" data-name="Layer 2" viewBox="0 0 592.88 256.88"><defs><style>.prefix__cls-1{fill:#f2f4f9}.prefix__cls-1,.prefix__cls-2,.prefix__cls-3{stroke-width:0}.prefix__cls-2{fill:var(--logo-text-color, #F2F4F9)}.prefix__cls-3{fill:#007fa8}</style></defs><g id="prefix__Layer_1-2" data-name="Layer 1"><path d="M213.38 84.7v11.25h-43.5V25.87h43.5v11.34h-31.59v18.14h28.22V65.9h-28.22v18.8h31.59zM246.45 24.6c6.41 0 11.73 1.56 15.98 4.69 4.25 3.12 6.86 7.3 7.83 12.52l-11.2 3.05c-.63-3-2.09-5.31-4.38-6.94-2.3-1.62-5.13-2.44-8.51-2.44-3.63 0-6.5.87-8.62 2.6-2.13 1.73-3.19 4.04-3.19 6.91 0 4.53 2.81 7.47 8.44 8.81l11.44 2.86c5.91 1.53 10.33 3.96 13.27 7.29 2.94 3.33 4.41 7.43 4.41 12.3 0 6.25-2.27 11.3-6.8 15.16-4.53 3.86-10.59 5.79-18.19 5.79-6.84 0-12.63-1.61-17.34-4.83-4.66-3.34-7.41-7.75-8.25-13.22l11.2-2.91c.41 3.09 1.95 5.52 4.62 7.27s6.07 2.62 10.2 2.62 7.08-.84 9.35-2.51c2.27-1.67 3.4-3.94 3.4-6.82 0-4.5-2.81-7.47-8.44-8.91l-11.44-2.77c-5.88-1.34-10.29-3.73-13.24-7.15s-4.43-7.6-4.43-12.54c0-6.19 2.2-11.21 6.59-15.07 4.39-3.86 10.16-5.79 17.32-5.79zM333 48.7c0 6.88-2.09 12.44-6.26 16.69-4.17 4.25-9.79 6.38-16.85 6.38h-15.75v24.19h-11.91V25.87h27.75c7.12 0 12.74 2.06 16.85 6.16 4.11 4.11 6.16 9.66 6.16 16.66zm-12.47-.28c0-3.53-1.1-6.4-3.3-8.6s-5.32-3.3-9.35-3.3h-13.73v24.8h13.55c4.12 0 7.3-1.17 9.52-3.52s3.33-5.47 3.33-9.38zM342.68 25.87h11.91v29.3l30.89.09V25.87h12v70.08h-12V65.81l-30.89-.09v30.23h-11.91V25.87zM432.33 47.29c7.25 0 13.16 2.33 17.72 6.98 4.56 4.66 6.84 10.64 6.84 17.95s-2.28 13.25-6.84 17.91c-4.56 4.66-10.47 6.98-17.72 6.98s-13.25-2.33-17.81-6.98c-4.56-4.66-6.84-10.62-6.84-17.91s2.28-13.34 6.84-17.98 10.5-6.96 17.81-6.96zm0 39.61c3.88 0 7.02-1.37 9.45-4.1 2.42-2.73 3.63-6.29 3.63-10.66s-1.21-7.91-3.63-10.62c-2.42-2.7-5.57-4.05-9.45-4.05s-7.17 1.35-9.61 4.05c-2.44 2.7-3.66 6.24-3.66 10.62s1.22 7.93 3.66 10.66c2.44 2.74 5.64 4.1 9.61 4.1zM537.87 65.81v30.14h-11.02V67.54c0-3.28-.84-5.84-2.53-7.69-1.69-1.84-3.98-2.77-6.89-2.77-3.09 0-5.56 1.01-7.41 3.02-1.84 2.02-2.77 4.84-2.77 8.46v27.38h-11.16V67.53c0-3.28-.82-5.84-2.46-7.69-1.64-1.84-3.91-2.77-6.82-2.77-3.09 0-5.58 1.01-7.45 3.02s-2.81 4.84-2.81 8.46v27.38h-11.34V48.59h10.55l.38 4.55c2.75-4.03 7.23-6.05 13.45-6.05 3.62 0 6.77.75 9.42 2.25 2.66 1.5 4.67 3.69 6.05 6.56 1.16-2.75 3.07-4.91 5.74-6.47 2.67-1.56 5.85-2.34 9.54-2.34 5.37 0 9.64 1.66 12.8 4.97 3.16 3.31 4.73 7.89 4.73 13.73zM592.88 76.45H556.6c.38 3.56 1.72 6.28 4.03 8.16s5.25 2.81 8.81 2.81c5.78 0 9.83-2.41 12.14-7.22l9.47 3.75c-1.78 4.16-4.59 7.41-8.41 9.75s-8.23 3.52-13.2 3.52c-7 0-12.68-2.29-17.04-6.87-4.36-4.58-6.54-10.59-6.54-18.02s2.2-13.48 6.59-18.14 10.13-6.98 17.23-6.98 12.58 2.3 16.83 6.89 6.38 10.64 6.38 18.14v4.22zm-36.09-7.97h24.56c-.22-3.84-1.38-6.77-3.49-8.79s-4.95-3.02-8.51-3.02-6.41 1.02-8.62 3.07c-2.22 2.05-3.53 4.96-3.94 8.74z" class="prefix__cls-2"/><path d="M226.88 193.4c.09 6.69-1.35 12.68-4.34 17.98s-7.14 9.41-12.47 12.33c-5.33 2.92-11.34 4.34-18.02 4.24h-21.52v-69.14h21.52c6.62-.06 12.61 1.38 17.95 4.31 5.34 2.94 9.52 7.06 12.52 12.38 3 5.31 4.45 11.28 4.36 17.91zm-8.72 0c0-7.94-2.41-14.39-7.24-19.36s-11.12-7.45-18.87-7.45h-13.27v53.67h13.27c7.78 0 14.08-2.48 18.89-7.43 4.81-4.95 7.22-11.43 7.22-19.43zM257.79 179.95c6.97 0 12.66 2.34 17.09 7.01 4.42 4.67 6.63 10.52 6.63 17.55s-2.21 12.89-6.63 17.58c-4.42 4.69-10.12 7.03-17.09 7.03s-12.66-2.34-17.09-7.03c-4.42-4.69-6.63-10.55-6.63-17.58s2.22-12.88 6.66-17.55c4.44-4.67 10.12-7.01 17.06-7.01zm0 42.04c4.75 0 8.55-1.62 11.39-4.88 2.91-3.34 4.36-7.55 4.36-12.61s-1.45-9.12-4.36-12.47c-2.81-3.31-6.61-4.97-11.39-4.97s-8.53 1.66-11.34 4.97c-2.88 3.31-4.31 7.47-4.31 12.47s1.44 9.3 4.31 12.61c2.84 3.25 6.62 4.88 11.34 4.88zM311.63 179.95c5.09 0 9.49 1.23 13.2 3.68 3.7 2.45 6.37 5.81 7.99 10.05l-6.98 2.77c-1-2.91-2.78-5.2-5.34-6.87s-5.52-2.51-8.86-2.51c-4.66 0-8.4 1.59-11.23 4.78s-4.24 7.44-4.24 12.75 1.42 9.42 4.27 12.61 6.58 4.78 11.2 4.78c3.25 0 6.16-.84 8.72-2.51 2.56-1.67 4.42-3.94 5.58-6.82l6.89 2.72c-1.75 4.38-4.51 7.76-8.27 10.15s-8.1 3.59-13.01 3.59c-7.03 0-12.68-2.26-16.95-6.77-4.27-4.52-6.4-10.43-6.4-17.74s2.15-13.29 6.45-17.84 9.96-6.82 16.99-6.82zM357.03 222.56c2.94 0 5.3-.6 7.1-1.8 1.8-1.2 2.7-3.02 2.7-5.46 0-3.31-2.19-5.56-6.56-6.75l-7.08-1.92c-8.34-2.22-12.52-6.56-12.52-13.03 0-3.97 1.5-7.23 4.5-9.8 3-2.56 6.95-3.84 11.86-3.84 4.47 0 8.23 1.05 11.3 3.14 3.06 2.09 4.86 4.92 5.39 8.48l-6.98 1.64c-.22-2.03-1.21-3.65-2.98-4.85-1.77-1.2-3.95-1.8-6.54-1.8s-4.84.64-6.45 1.92c-1.61 1.28-2.41 2.98-2.41 5.11 0 1.72.58 3.12 1.73 4.2 1.16 1.08 2.92 1.95 5.3 2.6l6.98 1.92c4 1 7.05 2.61 9.14 4.83 2.09 2.22 3.14 4.94 3.14 8.16 0 4.22-1.57 7.58-4.71 10.08-3.14 2.5-7.41 3.75-12.82 3.75-4.94 0-8.97-1.11-12.09-3.33-3.12-2.22-4.95-5.19-5.48-8.91l7.08-1.31c.34 2.13 1.44 3.82 3.28 5.09 1.84 1.27 4.22 1.9 7.12 1.9z" class="prefix__cls-3"/><rect width="120" height="120" x="2" y="136.88" class="prefix__cls-3" rx="8" ry="8"/><g><path fill="#18bcf2" d="M120 109.38c0 4.12-3.38 7.5-7.5 7.5H7.5c-4.12 0-7.5-3.38-7.5-7.5v-45c0-4.12 2.39-9.89 5.3-12.8L54.7 2.19c2.92-2.92 7.69-2.92 10.61 0l49.39 49.39c2.92 2.92 5.3 8.68 5.3 12.8v45z"/><path d="M80 39.21H40c-1.66 0-3 1.34-3 3v74.67h6V45.21h34v6H52c-1.66 0-3 1.34-3 3v12c0 1.66 1.34 3 3 3h25v6H52c-1.66 0-3 1.34-3 3v12c0 1.66 1.34 3 3 3h25v6H52c-1.66 0-3 1.34-3 3s1.34 3 3 3h28c1.66 0 3-1.34 3-3v-12c0-1.66-1.34-3-3-3H55v-6h25c1.66 0 3-1.34 3-3v-12c0-1.66-1.34-3-3-3H55v-6h25c1.66 0 3-1.34 3-3v-12c0-1.66-1.34-3-3-3z" class="prefix__cls-1"/></g><path class="prefix__cls-1" d="M59 234.21h6v22.68h-6z"/><g><path class="prefix__cls-1" d="M45.9 213.88h32.2v6H45.9z"/><path d="M72.1 156.88H36c-1.6 0-3 .6-4.2 1.8s-1.8 2.6-1.8 4.2v68c0 1.6.6 3 1.8 4.2 1.2 1.2 2.6 1.8 4.2 1.8h29v-6H36v-68h33.1v18.6H88v49.4H71.26v6H88c1.6 0 3-.6 4.2-1.8 1.2-1.2 1.8-2.6 1.8-4.2v-52.1l-21.9-21.9z" class="prefix__cls-1"/><path class="prefix__cls-1" d="M45.9 196.88h32.2v6H45.9z"/></g></g></svg>